<?xml version="1.0" encoding="UTF-8"?>
<svg id="Layer_1" data-name="Layer 1" xmlns="http://www.w3.org/2000/svg" viewBox="0 0 382.1 298.29">
  <defs>
    <style>
      .cls-1 {
        fill: #1d0054;
        stroke-width: 0px;
      }
    </style>
  </defs>
  <path class="cls-1" d="M190.99,87.7c-14.08,0-25.5,11.42-25.5,25.5s11.42,25.5,25.5,25.5,25.5-11.42,25.5-25.5-11.42-25.5-25.5-25.5ZM183.11,114.66c-5.8,0-10.5-4.7-10.5-10.5s4.7-10.5,10.5-10.5,10.5,4.7,10.5,10.5-4.7,10.5-10.5,10.5Z"/>
  <path class="cls-1" d="M305.3,169.13l9.6,9.6c42.4-30.1,67.1-65.3,67.1-65.3,0,0-35.2-49.7-93.6-81.6,18.7,22.4,30.1,50.7,30.1,81.7-.4,20-5,38.8-13.2,55.6Z"/>
  <path class="cls-1" d="M63.4,113.53c0-31,11.4-59.8,30.1-81.7C35.1,63.73,0,113.53,0,113.53c0,0,35.1,49.7,93.6,81.7-18.8-21.9-30.2-50.7-30.2-81.7Z"/>
  <g>
    <path class="cls-1" d="M193.02,28.9c-47.7,0-86.5,38.8-86.5,86.5s38.8,86.5,86.5,86.5,86.5-38.8,86.5-86.5S240.71,28.9,193.02,28.9ZM192.6,190.44c-41.42,0-75-33.58-75-75s33.58-75,75-75,75,33.58,75,75-33.58,75-75,75Z"/>
    <path class="cls-1" d="M297.38,202.37c-.35-.35-.82-.54-1.31-.54h0c-.5,0-.96.19-1.31.54l-15.54,15.53c-.35.35-.54.82-.54,1.31s.19.96.54,1.31l63.11,63.16c.72.72,1.9.72,2.63,0l15.54-15.53c.72-.72.72-1.9,0-2.63l-63.11-63.16h-.01Z"/>
    <path class="cls-1" d="M269.81,185.34h-.01s-7.32-7.43-7.32-7.43c-2.55,2.83-5.26,5.5-8.13,8l14,14.33h.01s9.2,9.41,9.2,9.41l8.16-8.16-15.91-16.16h0Z"/>
    <path class="cls-1" d="M366.87,250.51l-76.78-76.99c10.12-17.12,15.95-37.08,15.95-58.41C306.04,51.6,254.55.11,191.04.11s-115,51.49-115,115,51.49,115,115,115c21.87,0,42.31-6.12,59.71-16.72l76.47,76.67c5.47,5.49,12.65,8.23,19.83,8.23s14.31-2.72,19.77-8.17c10.95-10.92,10.97-28.65.05-39.6h0ZM365.44,273.11l-15.54,15.53c-1.73,1.73-3.99,2.59-6.26,2.59s-4.54-.86-6.27-2.59l-63.11-63.16c-1.67-1.67-2.59-3.9-2.59-6.26,0-1.56.41-3.06,1.16-4.37l-16.08-16.47h-.01s-7.86-8.04-7.86-8.04c-15.6,11.66-34.94,18.56-55.86,18.56-51.56,0-93.5-41.94-93.5-93.5S141.46,21.9,193.02,21.9s93.5,41.94,93.5,93.5c0,21.49-7.29,41.31-19.53,57.12l14.01,14.23h0s9.73,9.87,9.73,9.87c1.53-1.16,3.38-1.79,5.32-1.79h0c2.37,0,4.59.92,6.26,2.6l63.11,63.16c3.45,3.46,3.45,9.07,0,12.53h.02Z"/>
  </g>
</svg>